<svg width="375" height="48" viewBox="0 0 375 48" fill="none" xmlns="http://www.w3.org/2000/svg">
<path d="M37.0137 18.8896C37.5423 18.8896 38.0436 18.9876 38.5176 19.1836C38.9915 19.375 39.4108 19.6758 39.7754 20.0859C40.1445 20.4915 40.4339 21.0133 40.6436 21.6514C40.8532 22.2848 40.958 23.0482 40.958 23.9414V23.9551C40.958 25.0625 40.7985 26.0104 40.4795 26.7988C40.1605 27.5872 39.7025 28.1934 39.1055 28.6172C38.513 29.0365 37.8044 29.2461 36.9795 29.2461C36.3734 29.2461 35.8265 29.1367 35.3389 28.918C34.8558 28.6947 34.4548 28.3893 34.1357 28.002C33.8213 27.61 33.6094 27.1634 33.5 26.6621L33.4863 26.5869H35.2158L35.2432 26.6553C35.3298 26.8831 35.4528 27.0837 35.6123 27.2568C35.7764 27.43 35.9723 27.5645 36.2002 27.6602C36.4326 27.7513 36.6924 27.7969 36.9795 27.7969C37.499 27.7969 37.9229 27.6442 38.251 27.3389C38.5837 27.029 38.832 26.6165 38.9961 26.1016C39.1647 25.582 39.2604 25.0078 39.2832 24.3789C39.2878 24.3105 39.29 24.2445 39.29 24.1807C39.29 24.1123 39.29 24.0462 39.29 23.9824L38.9824 22.335C38.9824 21.9613 38.8958 21.6217 38.7227 21.3164C38.5495 21.0111 38.3148 20.7695 38.0186 20.5918C37.7269 20.4141 37.3965 20.3252 37.0273 20.3252C36.6719 20.3252 36.346 20.4118 36.0498 20.585C35.7536 20.7581 35.5166 20.9951 35.3389 21.2959C35.1611 21.5921 35.0723 21.9248 35.0723 22.2939V22.3076C35.0723 22.6904 35.1566 23.0299 35.3252 23.3262C35.4938 23.6178 35.724 23.848 36.0156 24.0166C36.3073 24.1852 36.64 24.2695 37.0137 24.2695C37.3874 24.2695 37.7223 24.1875 38.0186 24.0234C38.3148 23.8594 38.5495 23.6315 38.7227 23.3398C38.8958 23.0482 38.9824 22.7178 38.9824 22.3486V22.335H39.3926V24.1533H39.1533C39.0348 24.4131 38.8594 24.6546 38.627 24.8779C38.3945 25.1012 38.1074 25.2812 37.7656 25.418C37.4284 25.5547 37.0319 25.623 36.5762 25.623C35.9473 25.623 35.3913 25.4818 34.9082 25.1992C34.4251 24.9167 34.0446 24.5293 33.7666 24.0371C33.4932 23.5449 33.3564 22.9889 33.3564 22.3691V22.3555C33.3564 21.6855 33.5114 21.0908 33.8213 20.5713C34.1357 20.0472 34.5687 19.637 35.1201 19.3408C35.6761 19.04 36.3073 18.8896 37.0137 18.8896ZM44.0615 27.6738C43.7516 27.6738 43.4919 27.5713 43.2822 27.3662C43.0771 27.1566 42.9746 26.9014 42.9746 26.6006C42.9746 26.2952 43.0771 26.04 43.2822 25.835C43.4919 25.6253 43.7516 25.5205 44.0615 25.5205C44.376 25.5205 44.6357 25.6253 44.8408 25.835C45.0459 26.04 45.1484 26.2952 45.1484 26.6006C45.1484 26.9014 45.0459 27.1566 44.8408 27.3662C44.6357 27.5713 44.376 27.6738 44.0615 27.6738ZM44.0615 22.6016C43.7516 22.6016 43.4919 22.499 43.2822 22.2939C43.0771 22.0843 42.9746 21.8291 42.9746 21.5283C42.9746 21.223 43.0771 20.9678 43.2822 20.7627C43.4919 20.5531 43.7516 20.4482 44.0615 20.4482C44.376 20.4482 44.6357 20.5531 44.8408 20.7627C45.0459 20.9678 45.1484 21.223 45.1484 21.5283C45.1484 21.8291 45.0459 22.0843 44.8408 22.2939C44.6357 22.499 44.376 22.6016 44.0615 22.6016ZM51.9502 29V27.1064H47.124V25.6641C47.3838 25.222 47.6436 24.7777 47.9033 24.3311C48.1676 23.8844 48.4342 23.4401 48.7031 22.998C48.9766 22.5514 49.2477 22.1117 49.5166 21.6787C49.79 21.2412 50.0612 20.8105 50.3301 20.3867C50.6035 19.9583 50.877 19.5413 51.1504 19.1357H53.6318V25.6504H54.9648V27.1064H53.6318V29H51.9502ZM48.7646 25.6914H51.9775V20.5439H51.875C51.6745 20.8538 51.4671 21.1729 51.2529 21.501C51.0433 21.8291 50.8314 22.1641 50.6172 22.5059C50.403 22.8477 50.1911 23.1917 49.9814 23.5381C49.7718 23.8799 49.5645 24.224 49.3594 24.5703C49.1543 24.9121 48.9561 25.2516 48.7646 25.5889V25.6914ZM59.0459 29V20.8721H58.9229L56.4688 22.6016V20.9473L59.0459 19.1357H60.8027V29H59.0459Z" fill="black"/>
<rect opacity="0.35" x="315.434" y="18" width="24" height="12" rx="3" fill="black" stroke="black"/>
<path opacity="0.4" d="M340.934 22.1667V26.1667C341.738 25.828 342.262 25.0399 342.262 24.1667C342.262 23.2936 341.738 22.5055 340.934 22.1667" fill="black"/>
<rect x="316.934" y="19.5" width="21" height="9" rx="1.33333" fill="black"/>
<path fill-rule="evenodd" clip-rule="evenodd" d="M299.102 20.5671C301.569 20.5672 303.941 21.4647 305.728 23.0742C305.863 23.1984 306.078 23.1969 306.211 23.0707L307.498 21.8409C307.565 21.7768 307.602 21.6901 307.602 21.5999C307.601 21.5097 307.563 21.4234 307.495 21.3602C302.803 17.1019 295.401 17.1019 290.709 21.3602C290.641 21.4234 290.602 21.5096 290.602 21.5999C290.601 21.6901 290.638 21.7768 290.705 21.8409L291.993 23.0707C292.125 23.1971 292.34 23.1986 292.475 23.0742C294.263 21.4646 296.635 20.5671 299.102 20.5671ZM299.1 24.675C300.446 24.6749 301.744 25.173 302.742 26.0725C302.877 26.2002 303.09 26.1974 303.221 26.0663L304.498 24.7821C304.565 24.7148 304.603 24.6234 304.602 24.5284C304.601 24.4335 304.561 24.3429 304.493 24.2769C301.454 21.463 296.749 21.463 293.71 24.2769C293.642 24.3429 293.602 24.4335 293.602 24.5285C293.601 24.6235 293.638 24.7149 293.705 24.7821L294.982 26.0663C295.113 26.1974 295.326 26.2002 295.461 26.0725C296.458 25.1736 297.755 24.6756 299.1 24.675ZM301.601 27.3942C301.603 27.4967 301.567 27.5956 301.5 27.6674L299.341 30.0568C299.278 30.127 299.192 30.1665 299.102 30.1665C299.012 30.1665 298.925 30.127 298.862 30.0568L296.703 27.6674C296.636 27.5955 296.6 27.4966 296.602 27.3941C296.604 27.2915 296.644 27.1944 296.713 27.1257C298.092 25.8468 300.111 25.8468 301.49 27.1257C301.559 27.1945 301.6 27.2916 301.601 27.3942Z" fill="black"/>
<path fill-rule="evenodd" clip-rule="evenodd" d="M283.2 19.2915C283.2 18.6702 282.722 18.1665 282.133 18.1665H281.067C280.478 18.1665 280 18.6702 280 19.2915V29.0415C280 29.6628 280.478 30.1665 281.067 30.1665H282.133C282.722 30.1665 283.2 29.6628 283.2 29.0415V19.2915ZM275.767 20.5665H276.833C277.422 20.5665 277.9 21.0823 277.9 21.7185V29.0145C277.9 29.6507 277.422 30.1665 276.833 30.1665H275.767C275.178 30.1665 274.7 29.6507 274.7 29.0145V21.7185C274.7 21.0823 275.178 20.5665 275.767 20.5665ZM271.433 23.1665H270.367C269.778 23.1665 269.3 23.6888 269.3 24.3332V28.9998C269.3 29.6442 269.778 30.1665 270.367 30.1665H271.433C272.022 30.1665 272.5 29.6442 272.5 28.9998V24.3332C272.5 23.6888 272.022 23.1665 271.433 23.1665ZM266.133 25.5665H265.067C264.478 25.5665 264 26.0814 264 26.7165V29.0165C264 29.6516 264.478 30.1665 265.067 30.1665H266.133C266.722 30.1665 267.2 29.6516 267.2 29.0165V26.7165C267.2 26.0814 266.722 25.5665 266.133 25.5665Z" fill="black"/>
</svg>
